<svg width="59" height="59" viewBox="0 0 59 59" fill="none" xmlns="http://www.w3.org/2000/svg">
<mask id="mask0_33_114" style="mask-type:alpha" maskUnits="userSpaceOnUse" x="0" y="0" width="59" height="59">
<rect width="58.3477" height="58.3477" fill="#D9D9D9"/>
</mask>
<g mask="url(#mask0_33_114)">
<path d="M28.7484 51.0544C27.9319 51.0544 27.1637 50.9032 26.4436 50.601C25.7236 50.2987 25.066 49.8497 24.4708 49.2541L12.4925 37.3092L13.6613 36.1727C14.0292 35.8364 14.4461 35.619 14.9121 35.5205C15.3781 35.4225 15.8495 35.4326 16.3264 35.5509L23.0959 37.2199V17.0182C23.0959 16.6738 23.2126 16.3851 23.446 16.1521C23.6794 15.9192 23.9685 15.8027 24.3133 15.8027C24.6582 15.8027 24.9467 15.9192 25.1788 16.1521C25.411 16.3851 25.5271 16.6738 25.5271 17.0182V40.4837L16.6862 38.0945L26.2048 47.5669C26.5322 47.8939 26.9189 48.1518 27.365 48.3406C27.8112 48.529 28.2723 48.6232 28.7484 48.6232H37.6829C39.394 48.6232 40.8349 48.0381 42.0054 46.8679C43.1756 45.6973 43.7607 44.2565 43.7607 42.5453V32.8207C43.7607 32.4763 43.8774 32.1876 44.1108 31.9546C44.3442 31.7216 44.6333 31.6052 44.9781 31.6052C45.323 31.6052 45.6115 31.7216 45.8436 31.9546C46.0758 32.1876 46.1919 32.4763 46.1919 32.8207V42.5453C46.1919 44.908 45.3643 46.9168 43.7091 48.5716C42.0543 50.2268 40.0486 51.0544 37.692 51.0544H28.7484ZM29.9688 35.2519V25.5273C29.9688 25.1812 30.0853 24.8921 30.3183 24.66C30.5517 24.4278 30.8408 24.3117 31.1856 24.3117C31.5308 24.3117 31.8195 24.4282 32.0517 24.6612C32.2839 24.8942 32.4 25.1829 32.4 25.5273V35.2519H29.9688ZM36.8879 35.2519V27.9584C36.8879 27.6124 37.0046 27.3233 37.238 27.0911C37.4714 26.8589 37.7605 26.7428 38.1053 26.7428C38.4501 26.7428 38.7386 26.8593 38.9708 27.0923C39.2029 27.3253 39.319 27.614 39.319 27.9584V35.2519H36.8879ZM51.0542 17.953H40.3948V15.8027H48.3799C45.6121 13.5461 42.6106 11.7118 39.3756 10.2997C36.1401 8.88806 32.7395 8.18221 29.1738 8.18221C25.6081 8.18221 22.2076 8.88806 18.9721 10.2997C15.7371 11.7118 12.7356 13.5461 9.96772 15.8027H17.9528V17.953H7.29346V7.29363H9.44381V13.3855C12.3304 11.1821 15.435 9.40549 18.7576 8.05579C22.0801 6.7061 25.5522 6.03125 29.1738 6.03125C32.7954 6.03125 36.2675 6.7061 39.5901 8.05579C42.9127 9.40549 46.0173 11.1821 48.9038 13.3855V7.29363H51.0542V17.953Z" fill="white"/>
</g>
</svg>
